<svg width="16" height="18" viewBox="0 0 16 18" fill="none" xmlns="http://www.w3.org/2000/svg">
<path d="M2 9.00004H2.66667M13.3333 9.00004C13.5101 9.00004 13.6797 8.92541 13.8047 8.79257C13.9298 8.65974 14 8.47957 14 8.29171V5.45837C14 4.75004 13.6 3.33337 12 3.33337C10.4 3.33337 10 4.75004 10 5.45837M13.3333 9.00004V10.4167C13.3333 11.2228 12.9447 12.7174 11.5033 13.1374M13.3333 9.00004H2.66667M2.66667 9.00004V10.4167C2.66667 11.2228 3.05533 12.7174 4.49667 13.1374M4 14.6667L4.49667 13.1374M4.49667 13.1374C4.74333 13.2097 5.02133 13.25 5.33333 13.25H10.6667C10.9491 13.2526 11.2305 13.2148 11.5033 13.1374M12 14.6667L11.5033 13.1374M10 5.45837H8.66667M10 5.45837H11.3333" stroke="#667085" stroke-width="1.5" stroke-linecap="round" stroke-linejoin="round"/>
</svg>
