<svg width="18" height="18" viewBox="0 0 18 18" fill="none" xmlns="http://www.w3.org/2000/svg">
<path d="M1.98706 14.2197V10.5659C1.98879 10.0127 2.22205 9.48256 2.63588 9.09136C3.04971 8.70016 3.61049 8.47966 4.19574 8.47803H14.1348C14.72 8.47966 15.2808 8.70016 15.6946 9.09136C16.1085 9.48256 16.3417 10.0127 16.3435 10.5659V14.2197M13.5826 8.47803H3.64357V5.08521C3.64466 4.73943 3.79045 4.40812 4.04909 4.16362C4.30774 3.91912 4.65822 3.78131 5.02399 3.78027H13.3065C13.6723 3.78131 14.0228 3.91912 14.2814 4.16362C14.5401 4.40812 14.6859 4.73943 14.687 5.08521V8.47803H13.5826Z" stroke="#667085" stroke-linecap="round" stroke-linejoin="round"/>
<path d="M1.98706 14.2197V13.9587C1.9877 13.7513 2.07516 13.5525 2.23035 13.4058C2.38554 13.2591 2.59584 13.1764 2.81531 13.1758H15.5152C15.7347 13.1764 15.945 13.2591 16.1002 13.4058C16.2554 13.5525 16.3428 13.7513 16.3435 13.9587V14.2197M4.19574 8.47803V7.95605C4.19656 7.67942 4.31317 7.41434 4.5201 7.21873C4.72702 7.02312 5.00744 6.91288 5.30008 6.91211H8.06092C8.35356 6.91288 8.63398 7.02312 8.8409 7.21873C9.04783 7.41434 9.16444 7.67942 9.16526 7.95605V8.47803M9.16526 8.47803V7.95605C9.16608 7.67942 9.2827 7.41434 9.48962 7.21873C9.69655 7.02312 9.97697 6.91288 10.2696 6.91211H13.0304C13.3231 6.91288 13.6035 7.02312 13.8104 7.21873C14.0174 7.41434 14.134 7.67942 14.1348 7.95605V8.47803" stroke="#667085" stroke-width="1.5" stroke-linecap="round" stroke-linejoin="round"/>
</svg>
