<svg width="44" height="34" viewBox="0 0 44 34" fill="none" xmlns="http://www.w3.org/2000/svg">
<path d="M30 13L24 7.74001C23.45 7.24805 22.7379 6.97607 22 6.97607C21.262 6.97607 20.55 7.24805 20 7.74001L14 13C13.6823 13.2841 13.4289 13.6326 13.2564 14.0223C13.084 14.4119 12.9966 14.8339 13 15.26V24C13 24.7957 13.316 25.5587 13.8787 26.1213C14.4413 26.6839 15.2043 27 16 27H28C28.7956 27 29.5587 26.6839 30.1213 26.1213C30.6839 25.5587 31 24.7957 31 24V15.25C31.0019 14.8256 30.9138 14.4055 30.7414 14.0177C30.5691 13.6298 30.3163 13.283 30 13ZM24 25H20V20C20 19.7348 20.1053 19.4804 20.2929 19.2929C20.4804 19.1054 20.7348 19 21 19H23C23.2652 19 23.5195 19.1054 23.7071 19.2929C23.8946 19.4804 24 19.7348 24 20V25ZM29 24C29 24.2652 28.8946 24.5196 28.7071 24.7071C28.5195 24.8946 28.2652 25 28 25H26V20C26 19.2044 25.6839 18.4413 25.1213 17.8787C24.5587 17.3161 23.7956 17 23 17H21C20.2043 17 19.4413 17.3161 18.8787 17.8787C18.316 18.4413 18 19.2044 18 20V25H16C15.7348 25 15.4804 24.8946 15.2929 24.7071C15.1053 24.5196 15 24.2652 15 24V15.25C15.0002 15.108 15.0306 14.9677 15.0892 14.8384C15.1478 14.7091 15.2333 14.5937 15.34 14.5L21.34 9.25001C21.5225 9.08969 21.7571 9.00127 22 9.00127C22.2429 9.00127 22.4775 9.08969 22.66 9.25001L28.66 14.5C28.7666 14.5937 28.8521 14.7091 28.9108 14.8384C28.9694 14.9677 28.9998 15.108 29 15.25V24Z" fill="#98A2B3"/>
</svg>
