<?xml version="1.0" standalone="no"?>
<!DOCTYPE svg PUBLIC "-//W3C//DTD SVG 20010904//EN"
 "http://www.w3.org/TR/2001/REC-SVG-20010904/DTD/svg10.dtd">
<svg version="1.0" xmlns="http://www.w3.org/2000/svg"
 width="136.000000pt" height="136.000000pt" viewBox="0 0 136.000000 136.000000"
 preserveAspectRatio="xMidYMid meet">
<metadata>
Created by potrace 1.14, written by Peter Selinger 2001-2017
</metadata>
<g transform="translate(0.000000,136.000000) scale(0.100000,-0.100000)"
fill="#000000" stroke="none">
<path d="M1200 1021 c0 -11 6 -22 13 -24 6 -3 2 -6 -10 -6 -17 -1 -23 -7 -23
-23 0 -17 3 -19 12 -10 21 21 28 13 28 -28 0 -29 4 -40 15 -40 11 0 15 11 15
40 0 41 7 49 28 28 9 -9 12 -7 12 10 0 13 -6 22 -15 22 -19 0 -56 31 -49 42 3
4 -2 8 -10 8 -9 0 -16 -8 -16 -19z"/>
<path d="M161 1007 c-5 -13 -21 -31 -35 -40 -48 -32 -27 -77 34 -74 44 3 60
13 60 38 0 23 -16 25 -24 2 -6 -14 -8 -14 -20 3 -12 16 -12 21 0 38 16 24 19
56 4 56 -6 0 -14 -10 -19 -23z m-11 -77 c0 -5 -4 -10 -10 -10 -5 0 -10 5 -10
10 0 6 5 10 10 10 6 0 10 -4 10 -10z"/>
<path d="M270 1016 c0 -7 -6 -18 -13 -24 -16 -14 -16 -94 0 -99 8 -3 13 11 15
38 3 45 24 65 30 29 4 -29 22 -26 26 5 2 16 -2 27 -12 31 -9 3 -16 12 -16 20
0 8 -7 14 -15 14 -8 0 -15 -6 -15 -14z"/>
<path d="M355 1022 c-14 -14 -4 -33 15 -27 15 5 20 2 20 -13 0 -11 5 -22 11
-24 9 -3 9 -9 0 -25 -14 -27 -14 -43 -1 -43 8 0 50 70 50 85 0 3 -6 5 -14 5
-8 0 -17 9 -21 19 -5 18 -48 34 -60 23z"/>
<path d="M561 1008 c-5 -13 -18 -32 -30 -42 -35 -32 -21 -76 24 -76 26 0 45
18 45 42 0 25 -21 23 -27 -2 -3 -12 -10 -19 -16 -17 -20 6 -17 23 8 53 27 31
31 49 15 59 -6 3 -14 -4 -19 -17z"/>
<path d="M660 1017 c0 -7 -9 -30 -20 -52 -11 -22 -20 -47 -20 -57 0 -27 46
-24 61 4 l12 23 10 -23 c9 -20 25 -26 30 -12 1 3 -9 31 -23 62 -23 54 -50 83
-50 55z m23 -61 c4 -10 1 -13 -8 -9 -8 3 -12 9 -9 14 7 12 11 11 17 -5z"/>
<path d="M804 1019 c-4 -7 0 -17 9 -24 10 -7 17 -17 17 -24 0 -6 5 -11 10 -11
6 0 4 -13 -5 -30 -19 -36 -19 -37 1 -37 9 0 19 9 22 19 6 24 18 23 25 -2 3
-11 10 -20 16 -20 17 0 13 36 -5 55 -9 9 -14 19 -11 22 7 6 -17 33 -29 33 -4
0 -15 7 -25 16 -13 12 -19 12 -25 3z"/>
<path d="M955 1020 c4 -6 2 -16 -3 -23 -20 -24 -19 -107 2 -107 9 0 13 11 11
35 -2 37 9 64 21 52 4 -4 8 -23 8 -44 1 -37 25 -60 27 -26 3 48 -5 80 -24 101
-20 22 -54 32 -42 12z"/>
<path d="M1090 1010 c0 -14 -6 -20 -17 -18 -10 2 -19 -5 -21 -15 -3 -15 0 -18
17 -12 19 6 21 2 21 -34 0 -42 13 -51 54 -35 23 9 20 45 -4 51 -11 3 -20 10
-20 15 0 5 9 6 20 3 11 -3 20 -2 20 3 0 13 -25 33 -33 26 -3 -3 -8 4 -12 15
-8 27 -25 27 -25 1z m40 -90 c0 -5 -2 -10 -4 -10 -3 0 -8 5 -11 10 -3 6 -1 10
4 10 6 0 11 -4 11 -10z"/>
<path d="M300 799 c0 -5 5 -9 10 -9 14 0 13 -243 -1 -257 -8 -8 2 -11 40 -10
28 1 51 5 51 10 0 4 -4 7 -10 7 -13 0 -13 106 0 131 11 20 45 26 55 10 11 -20
9 -135 -3 -139 -28 -9 -9 -19 38 -19 28 -1 50 3 50 8 0 5 -4 9 -10 9 -6 0 -10
29 -10 68 0 101 -30 130 -104 102 -26 -9 -26 -9 -26 44 l0 54 -40 0 c-22 0
-40 -3 -40 -9z"/>
<path d="M580 795 c-18 -21 -5 -47 22 -43 26 3 37 36 16 49 -18 12 -24 11 -38
-6z"/>
<path d="M5 770 c-3 -4 2 -10 10 -14 13 -4 15 -34 15 -178 l0 -172 30 34 c16
19 29 44 30 56 0 17 7 21 40 22 83 4 140 60 140 137 0 79 -54 115 -181 120
-44 1 -82 -1 -84 -5z m174 -49 c28 -28 36 -84 19 -129 -15 -41 -46 -61 -83
-54 -25 4 -25 6 -25 103 l0 99 35 0 c21 0 43 -8 54 -19z"/>
<path d="M985 725 c-5 -2 -23 -6 -38 -9 -31 -7 -67 -58 -67 -94 0 -56 50 -102
110 -102 69 0 113 42 113 107 0 42 -39 83 -79 83 -14 0 -22 4 -19 10 6 10 -1
12 -20 5z m20 -31 c57 -38 52 -154 -8 -154 -53 0 -76 80 -40 141 20 34 17 33
48 13z"/>
<path d="M558 708 c-10 -6 -10 -8 0 -8 15 0 17 -151 1 -167 -7 -7 3 -10 36
-10 25 0 48 4 51 8 3 5 0 9 -5 9 -7 0 -11 30 -11 80 0 54 4 80 12 80 6 0 8 3
4 7 -10 10 -73 11 -88 1z"/>
<path d="M735 713 c-30 -7 -55 -33 -55 -58 0 -29 16 -42 69 -54 52 -11 58 -17
45 -39 -15 -24 -50 -27 -80 -7 -30 19 -35 17 -27 -13 4 -18 12 -22 48 -22 83
0 130 33 118 81 -5 17 -34 32 -84 43 -37 8 -45 34 -14 48 19 9 29 7 49 -6 32
-21 34 -20 29 7 -4 18 -11 22 -41 23 -20 1 -46 -1 -57 -3z"/>
<path d="M1133 709 c14 -8 17 -24 17 -89 0 -50 -4 -80 -11 -80 -5 0 -8 -4 -4
-9 6 -11 95 -11 95 0 0 4 -5 9 -12 11 -16 6 -13 115 3 135 7 7 22 13 33 11 19
-3 21 -11 24 -75 2 -48 -1 -73 -8 -73 -6 0 -9 -4 -6 -9 3 -4 26 -8 51 -8 38 0
43 2 33 14 -6 8 -11 35 -9 60 5 96 -34 141 -101 115 -16 -6 -28 -6 -28 -1 0 5
-21 9 -47 9 -38 -1 -44 -3 -30 -11z"/>
<path d="M325 436 c-10 -53 -12 -76 -4 -76 4 0 12 7 17 16 8 15 10 15 15 0 4
-9 11 -16 17 -16 7 0 8 6 0 19 -7 13 -7 22 0 26 20 12 10 43 -15 47 -20 4 -26
1 -30 -16z m30 -6 c3 -5 1 -10 -4 -10 -6 0 -11 5 -11 10 0 6 2 10 4 10 3 0 8
-4 11 -10z"/>
<path d="M596 449 c-12 -37 -16 -89 -7 -89 11 0 27 88 17 97 -3 3 -8 0 -10 -8z"/>
<path d="M685 451 c-2 -5 -7 -27 -11 -49 -6 -40 -5 -42 20 -42 14 0 26 5 26
10 0 6 -7 10 -15 10 -23 0 -18 17 8 25 19 6 19 8 5 12 -10 2 -18 9 -18 15 0 5
7 7 16 4 9 -4 14 -1 12 6 -5 13 -36 20 -43 9z"/>
<path d="M825 450 c-10 -17 -16 -90 -7 -90 12 0 29 66 22 86 -5 14 -8 15 -15
4z"/>
<path d="M965 450 c-11 -18 -14 -90 -4 -90 5 0 10 5 10 10 3 20 4 25 12 37 4
6 3 21 -1 34 -7 17 -11 19 -17 9z"/>
<path d="M1157 453 c-12 -11 -8 -36 10 -55 15 -17 15 -18 -5 -18 -12 0 -22 -4
-22 -10 0 -5 11 -10 25 -10 30 0 34 33 8 63 -17 19 -17 20 -1 14 10 -3 20 -2
23 2 3 5 -2 12 -11 15 -19 7 -19 7 -27 -1z"/>
<path d="M1293 450 c-27 -11 -40 -54 -23 -75 14 -17 70 -20 70 -4 0 5 -10 9
-21 7 -12 -2 -26 4 -32 14 -16 24 9 51 40 43 26 -6 32 9 7 19 -9 3 -16 6 -17
5 -1 0 -12 -4 -24 -9z"/>
<path d="M412 421 c-8 -4 -12 -19 -10 -32 2 -18 10 -25 31 -27 16 -2 27 2 27
8 0 7 -7 10 -15 7 -8 -4 -17 -2 -20 3 -4 6 6 10 20 10 20 0 26 4 23 18 -4 19
-36 27 -56 13z m35 -17 c-3 -3 -12 -4 -19 -1 -8 3 -5 6 6 6 11 1 17 -2 13 -5z"/>
<path d="M500 415 c-21 -25 -8 -50 28 -53 26 -3 32 0 32 17 0 10 3 26 6 35 5
12 -1 16 -24 16 -16 0 -35 -7 -42 -15z m38 -32 c-6 -7 -14 -10 -19 -7 -13 8
-11 32 4 37 17 6 28 -15 15 -30z"/>
<path d="M750 410 c0 -11 5 -20 10 -20 6 0 10 -4 10 -10 0 -5 -7 -6 -17 -3
-11 4 -14 3 -9 -5 4 -7 14 -12 22 -12 20 0 30 30 13 41 -10 6 -10 9 -1 9 6 0
12 5 12 10 0 6 -9 10 -20 10 -13 0 -20 -7 -20 -20z"/>
<path d="M864 405 c-8 -32 2 -45 35 -45 25 0 29 4 33 33 3 32 2 34 -29 35 -27
1 -34 -3 -39 -23z m49 -2 c9 -9 -13 -34 -24 -27 -14 8 -11 34 4 34 8 0 17 -3
20 -7z"/>
<path d="M1010 415 c-18 -22 -3 -55 26 -55 30 0 32 17 2 23 -17 3 -14 5 10 6
29 1 32 3 22 21 -13 23 -42 26 -60 5z m37 -11 c-3 -3 -12 -4 -19 -1 -8 3 -5 6
6 6 11 1 17 -2 13 -5z"/>
<path d="M1210 370 c0 -5 5 -10 10 -10 6 0 10 5 10 10 0 6 -4 10 -10 10 -5 0
-10 -4 -10 -10z"/>
</g>
</svg>
